<svg xmlns="http://www.w3.org/2000/svg" viewBox="0 0 128 128" role="img" aria-label="Palme am Strand">
  <defs>
    <linearGradient id="sky" x1="0" x2="0" y1="0" y2="1">
      <stop offset="0%" stop-color="#7dd3fc" />
      <stop offset="100%" stop-color="#bae6fd" />
    </linearGradient>
    <linearGradient id="sea" x1="0" x2="0" y1="0" y2="1">
      <stop offset="0%" stop-color="#38bdf8" />
      <stop offset="100%" stop-color="#0ea5e9" />
    </linearGradient>
    <linearGradient id="sand" x1="0" x2="0" y1="0" y2="1">
      <stop offset="0%" stop-color="#facc15" />
      <stop offset="100%" stop-color="#f59e0b" />
    </linearGradient>
  </defs>
  <rect width="128" height="128" rx="24" fill="url(#sky)" />
  <rect y="76" width="128" height="52" fill="url(#sand)" />
  <rect y="64" width="128" height="18" fill="url(#sea)" opacity="0.9" />
  <circle cx="96" cy="32" r="14" fill="#fde68a" />
  <path d="M40 86c8-24 11-37 8-54" stroke="#9a3412" stroke-width="8" stroke-linecap="round" />
  <path d="M42 36c-16 2-28 8-34 20" stroke="#15803d" stroke-width="8" stroke-linecap="round" />
  <path d="M44 32c-10-10-18-20-18-32" stroke="#16a34a" stroke-width="8" stroke-linecap="round" />
  <path d="M46 34c12-10 26-14 42-12" stroke="#22c55e" stroke-width="8" stroke-linecap="round" />
  <path d="M46 40c14 6 26 16 30 30" stroke="#15803d" stroke-width="8" stroke-linecap="round" />
  <path d="M30 92c10-6 22-8 38-4" stroke="#f97316" stroke-width="6" stroke-linecap="round" />
</svg>
